inDegrees=yes
name=ik_S46_A07_T02
DataType=double
version=3
OpenSimVersion=4.3-2021-08-27-4bc7ad9
endheader
time	pelvis_tilt	pelvis_list	pelvis_rotation	pelvis_tx	pelvis_ty	pelvis_tz	hip_flexion_r	hip_adduction_r	hip_rotation_r	knee_angle_r	knee_angle_r_beta	ankle_angle_r	subtalar_angle_r	mtp_angle_r	hip_flexion_l	hip_adduction_l	hip_rotation_l	knee_angle_l	knee_angle_l_beta	ankle_angle_l	subtalar_angle_l	mtp_angle_l	lumbar_extension	lumbar_bending	lumbar_rotation	arm_flex_r	arm_add_r	arm_rot_r	elbow_flex_r	pro_sup_r	wrist_flex_r	wrist_dev_r	arm_flex_l	arm_add_l	arm_rot_l	elbow_flex_l	pro_sup_l	wrist_flex_l	wrist_dev_l
7.119999999999936	-10.0281508176658	-3.117826846889689	27.19073607696963	0	0.9399999999999999	0	35.07944994829267	-11.00355899922371	-9.859932895273054	44.64731661883181	0.7792426771789972	0	0	0	35.07944994829267	-11.00355899922371	-9.859932895273054	44.64731661883181	0.7792426771789972	0	0	0	-7.770120387528364	-3.39133235371737	6.101559292921971	71.87807244296432	-8.500920334821025	4.020254348357728	88.24112022528135	104.7476164718216	0	0	13.23695138498583	-4.853559072859069	9.965434619886373	57.41126294571827	118.1903596073778	0	0
7.139999999999936	-10.00282761321257	-3.122283013248999	27.1225682272616	0	0.9399999999999999	0	35.17067804096501	-10.98212812016769	-9.862164672659464	44.732144794472	0.7807232081423785	0	0	0	35.17067804096501	-10.98212812016769	-9.862164672659464	44.732144794472	0.7807232081423785	0	0	0	-7.758489757387085	-3.396091789659037	6.177735023758808	74.03140132868076	-9.152421180072553	3.849714862805259	89.98175704280422	105.1840008570891	0	0	13.27418373397405	-4.873388770366197	10.06393462189421	57.35321171105583	118.1366831337651	0	0
7.159999999999935	-9.958638254012683	-3.111396905161272	27.0909644096391	0	0.9399999999999999	0	35.1730534127619	-10.98131836504028	-9.862237700956634	44.73383076715798	0.7807526339168476	0	0	0	35.1730534127619	-10.98131836504028	-9.862237700956634	44.73383076715798	0.7807526339168476	0	0	0	-7.713159974789294	-3.409340649958309	6.188682798819249	74.99778969031212	-9.362641404348587	4.018358378974574	90.38661715394561	105.3422579316852	0	0	13.1851574228668	-4.903390824947046	10.04056931633085	57.34476555238733	118.1641888903775	0	0
7.179999999999935	-9.91957657472636	-3.097648237234167	27.06438757703523	0	0.9399999999999999	0	35.17600422517253	-10.9803102617081	-9.862328559297179	44.73591964449683	0.7807890917040808	0	0	0	35.17600422517253	-10.9803102617081	-9.862328559297179	44.73591964449683	0.7807890917040808	0	0	0	-7.671060467793554	-3.417686396362845	6.202104809948111	75.90826568439267	-9.554934849482541	4.316086926786265	90.78926239908706	105.5393520289255	0	0	13.17499075018346	-4.939813157910417	10.09772324446832	57.29335876834399	118.1222750169992	0	0
7.199999999999934	-9.858099786165301	-3.087606717990994	27.06426339031891	0	0.9399999999999999	0	35.17868507228204	-10.97939612011038	-9.862411012060869	44.73781986306894	0.7808222567746718	0	0	0	35.17868507228204	-10.97939612011038	-9.862411012060869	44.73781986306894	0.7808222567746718	0	0	0	-7.611217468846385	-3.436827309335086	6.197484459750132	76.77624052872764	-9.686728645007555	4.582390435287902	91.12617652953766	105.7362919150019	0	0	13.05573170598548	-4.98128693288161	10.09098156860706	57.28278430236029	118.1294895853156	0	0
7.219999999999934	-9.841379236539513	-3.083621181549317	27.04937230268814	0	0.9399999999999999	0	35.1819365514168	-10.9782860120882	-9.862511110066649	44.74012028358496	0.7808624066868567	0	0	0	35.1819365514168	-10.9782860120882	-9.862511110066649	44.74012028358496	0.7808624066868567	0	0	0	-7.593350599337549	-3.444378780938482	6.218255755304163	77.67783286889669	-9.861249252228589	4.892296173146167	90.91065817776743	105.6227986755114	0	0	13.15968394792672	-5.034153930200943	10.22093114515432	57.20168967628349	118.0312989639181	0	0
7.239999999999934	-9.797852420149475	-3.079983367925471	27.02958334762206	0	0.9399999999999999	0	35.18469064693883	-10.97734756059694	-9.862595797375384	44.74207135484355	0.7808964593042601	0	0	0	35.18469064693883	-10.97734756059694	-9.862595797375384	44.74207135484355	0.7808964593042601	0	0	0	-7.551144711388468	-3.466030239141422	6.245771133738404	78.57062076825586	-10.08790392935957	5.078139818203605	91.1617348625289	105.7211361972723	0	0	13.13406782190645	-5.062600459658766	10.28505730320715	57.15179192192682	117.9880690573098	0	0
7.259999999999933	-9.721007706870591	-3.073684457642831	27.00556553398797	0	0.9399999999999999	0	35.18703053801506	-10.97655148876827	-9.862667682818532	44.74373057415793	0.7809254181443087	0	0	0	35.18703053801506	-10.97655148876827	-9.862667682818532	44.74373057415793	0.7809254181443087	0	0	0	-7.477676061601411	-3.501366187233129	6.27558931146077	79.39165025166726	-10.31232533076988	5.175544067325232	91.41471465871355	105.8753990440496	0	0	13.06195779699656	-5.129930738658182	10.34202291594482	57.09737268045427	117.9568958097955	0	0
7.279999999999933	-9.704980556900663	-3.070835229475133	26.97154025761364	0	0.9399999999999999	0	35.19131135745847	-10.97509053444547	-9.862799482131127	44.74675504297815	0.7809782050833455	0	0	0	35.19131135745847	-10.97509053444547	-9.862799482131127	44.74675504297815	0.7809782050833455	0	0	0	-7.459471823319998	-3.514603433942145	6.321986133116861	81.17280517716293	-10.70180489872588	5.553172294378535	90.9052808086898	105.6461354751014	0	0	13.09252069630214	-5.134385662618424	10.40457078970667	57.05360724792268	117.9044649057656	0	0
7.299999999999932	-9.664607573508025	-3.066648851738819	26.95468777313767	0	0.9399999999999999	0	35.19402939347095	-10.97416654899002	-9.862882963940846	44.74868130387361	0.7810118246782236	0	0	0	35.19402939347095	-10.97416654899002	-9.862882963940846	44.74868130387361	0.7810118246782236	0	0	0	-7.420200837457057	-3.533171991324652	6.34381817878375	81.97062662008334	-10.85898392793043	5.689567794039121	91.13641108080675	105.8222225527751	0	0	13.0719003947769	-5.180415321298138	10.45142851149041	57.01361542758109	117.8828082767582	0	0
7.319999999999932	-9.624651907147411	-3.056781661293638	26.89311416387794	0	0.9399999999999999	0	35.19876218732444	-10.97256974022799	-9.863027640066163	44.75205664243675	0.78107073544952	0	0	0	35.19876218732444	-10.97256974022799	-9.863027640066163	44.75205664243675	0.78107073544952	0	0	0	-7.376553184663647	-3.55415874454786	6.414215108010183	81.87028064886459	-10.82514900627815	5.590922698777858	93.09864448076895	107.1722755282727	0	0	13.09298830327651	-5.235814015053643	10.53930765949428	56.9176008465134	117.7928074908075	0	0
7.339999999999931	-9.596350769151838	-3.052953631386456	26.89614338137057	0	0.9399999999999999	0	35.20198948082204	-10.97147302500747	-9.863126770948162	44.75434106833524	0.7811106062029665	0	0	0	35.20198948082204	-10.97147302500747	-9.863126770948162	44.75434106833524	0.7811106062029665	0	0	0	-7.348848094368721	-3.565512275643901	6.426901204027041	82.62297547350256	-10.95116107048309	5.776548708470856	92.8759446715838	107.135066167058	0	0	13.10769531237164	-5.249768990204212	10.5784252589224	56.90974943386684	117.7976609591158	0	0
